<svg width="512" height="512" viewBox="0 0 512 512" fill="none" xmlns="http://www.w3.org/2000/svg">
<path fill-rule="evenodd" clip-rule="evenodd" d="M26.6667 74.6666V117.333C26.6667 130.064 31.7238 142.273 40.7255 151.274C49.7273 160.276 61.9363 165.333 74.6667 165.333H117.333C130.064 165.333 142.273 160.276 151.274 151.274C160.276 142.273 165.333 130.064 165.333 117.333V74.6666C165.333 61.9362 160.276 49.7272 151.274 40.7255C142.273 31.7238 130.064 26.6666 117.333 26.6666H74.6667C61.9363 26.6666 49.7273 31.7238 40.7255 40.7255C31.7238 49.7272 26.6667 61.9362 26.6667 74.6666ZM346.667 394.667V437.333C346.667 450.064 351.724 462.273 360.726 471.274C369.727 480.276 381.936 485.333 394.667 485.333H437.333C450.064 485.333 462.273 480.276 471.274 471.274C480.276 462.273 485.333 450.064 485.333 437.333V394.667C485.333 381.936 480.276 369.727 471.274 360.726C462.273 351.724 450.064 346.667 437.333 346.667H394.667C381.936 346.667 369.727 351.724 360.726 360.726C351.724 369.727 346.667 381.936 346.667 394.667Z" fill="black"/>
<path fill-rule="evenodd" clip-rule="evenodd" d="M149.333 112H426.667C433.736 112.011 440.512 114.824 445.51 119.823C450.509 124.821 453.322 131.598 453.333 138.667V213.333C453.322 220.402 450.509 227.179 445.51 232.177C440.512 237.176 433.736 239.989 426.667 240H248.667C244.423 240 240.354 241.686 237.353 244.686C234.352 247.687 232.667 251.757 232.667 256C232.667 260.243 234.352 264.313 237.353 267.314C240.354 270.314 244.423 272 248.667 272H426.667C442.219 272 457.152 265.813 468.16 254.827C479.151 243.814 485.327 228.892 485.333 213.333V138.667C485.333 123.115 479.147 108.181 468.16 97.1733C457.147 86.1823 442.226 80.0065 426.667 80H149.333C145.09 80 141.02 81.6857 138.02 84.6863C135.019 87.6869 133.333 91.7565 133.333 96C133.333 100.243 135.019 104.313 138.02 107.314C141.02 110.314 145.09 112 149.333 112ZM277.333 400H85.3333C78.2643 399.989 71.4881 397.176 66.4896 392.177C61.4911 387.179 58.6779 380.402 58.6667 373.333V298.667C58.6779 291.598 61.4911 284.821 66.4896 279.823C71.4881 274.824 78.2643 272.011 85.3333 272H258.667C262.91 272 266.98 270.314 269.98 267.314C272.981 264.313 274.667 260.243 274.667 256C274.667 251.757 272.981 247.687 269.98 244.686C266.98 241.686 262.91 240 258.667 240H85.3333C69.7813 240 54.848 246.187 43.84 257.173C32.849 268.186 26.6732 283.108 26.6667 298.667V373.333C26.6667 388.885 32.8533 403.819 43.84 414.827C54.8527 425.818 69.7743 431.993 85.3333 432H277.333C281.577 432 285.646 430.314 288.647 427.314C291.648 424.313 293.333 420.243 293.333 416C293.333 411.757 291.648 407.687 288.647 404.686C285.646 401.686 281.577 400 277.333 400Z" fill="black"/>
<path fill-rule="evenodd" clip-rule="evenodd" d="M277.333 400H85.3333C78.2643 399.989 71.4881 397.176 66.4896 392.177C61.4911 387.179 58.6779 380.402 58.6667 373.333V298.667C58.6779 291.598 61.4911 284.821 66.4896 279.823C71.4881 274.824 78.2643 272.011 85.3333 272H258.667C262.91 272 266.98 270.314 269.98 267.314C272.981 264.313 274.667 260.243 274.667 256C274.667 251.757 272.981 247.687 269.98 244.686C266.98 241.686 262.91 240 258.667 240H85.3333C69.7813 240 54.848 246.187 43.84 257.173C32.849 268.186 26.6732 283.108 26.6667 298.667V373.333C26.6667 388.885 32.8533 403.819 43.84 414.827C54.8527 425.818 69.7743 431.993 85.3333 432H277.333C281.577 432 285.646 430.314 288.647 427.314C291.648 424.313 293.333 420.243 293.333 416C293.333 411.757 291.648 407.687 288.647 404.686C285.646 401.686 281.577 400 277.333 400Z" fill="black"/>
<path fill-rule="evenodd" clip-rule="evenodd" d="M267.307 469.973L309.973 427.307C311.459 425.823 312.639 424.06 313.443 422.12C314.247 420.18 314.661 418.1 314.661 416C314.661 413.9 314.247 411.82 313.443 409.88C312.639 407.94 311.459 406.177 309.973 404.693L267.307 362.027C264.308 359.028 260.241 357.343 256 357.343C251.759 357.343 247.692 359.028 244.693 362.027C241.695 365.025 240.01 369.092 240.01 373.333C240.01 377.574 241.695 381.641 244.693 384.64L276.032 416L244.693 447.36C243.209 448.845 242.031 450.607 241.227 452.547C240.424 454.487 240.01 456.567 240.01 458.667C240.01 460.766 240.424 462.846 241.227 464.786C242.031 466.726 243.209 468.488 244.693 469.973C246.178 471.458 247.941 472.636 249.881 473.439C251.821 474.243 253.9 474.657 256 474.657C258.1 474.657 260.179 474.243 262.119 473.439C264.059 472.636 265.822 471.458 267.307 469.973Z" fill="black"/>
</svg>
